<svg version="1.2" xmlns="http://www.w3.org/2000/svg" viewBox="0 0 929 217" width="929" height="217">
	<style>
		.s0 { fill: #ffffff } 
		.s1 { fill: #be0027 } 
		.s2 { fill: #000000 } 
	</style>
	<path id="Path 3 copy" fill-rule="evenodd" class="s0" d="m880.61 131.39c-10.6 0-20.21 4.29-27.17 11.23l-3.41-8.91 50.63-48.76c4.29-3.57 7.03-8.96 7.03-14.99q0-1.08-0.12-2.13c8-4.2 12.22-13.58 9.61-22.6l-0.87-3.02 4.74-4.35c4.42-3.57 7.25-9.04 7.25-15.16 0-10.78-8.73-19.51-19.5-19.51h-12.08v0.1q-1.71 0-3.39 0.3-1.9-0.39-3.9-0.4h-12.25v0.08c-1.86 0-3.75 0.27-5.63 0.84q-1.04 0.32-2.02 0.74-6-2.4-13.02-2.4-6.29 0-12.27 1.87-0.62 0.16-1.22 0.37-1.52 0.52-3.01 1.17-2.5-1.37-5.37-2.19-4.27-1.22-9.23-1.22-3.17 0-6.82 0.76-1.3 0.27-2.51 0.6-1.24-0.38-2.56-0.65-3.45-0.71-6.74-0.71-3.5 0-7.07 0.86-1.05-0.12-2.12-0.12h-10.17v0.05c-2.17 0-4.31 0.37-6.33 1.06q-1.62-0.54-3.36-0.91-4.37-0.94-9.55-0.94-6.15 0-11.87 1.17-5.25 1.09-9.68 3.25-0.96 0.41-1.88 0.92c-3.33-2.64-7.54-4.21-12.11-4.21h-47.5v0.08q-1.75 0-3.46 0.31-0.86-0.19-1.76-0.31-13.11-1.66-21.12-2.32-9.81-0.8-16.66-0.8-8.86 0-16.68 1.11-8.45 1.2-15.06 3.71l0.01 0.02-0.16 0.06q-6.15 2.38-11.47 5.55-5.67 3.39-10.18 7.49l0.04 0.04q-4.73 4.28-8.46 9.37-3.31 4.51-6.09 9.84-0.35 0.6-0.67 1.23-2.4 4.83-4.52 9.91-0.3 0.72-0.6 1.45h-3.85v0.08c-2.7 0-5.33 0.56-7.74 1.61q-2.5-1.03-5.02-1.81-8.16-2.54-16.26-2.54-7.49 0-14.63 1.92-4.02 1.08-7.9 2.81c-2.56-1.23-5.43-1.92-8.46-1.92h-44.44v0.08c-8.24-0.01-15.89 5.28-18.51 13.55l-1.91 5.99q-0.64-0.85-1.34-1.68l-0.02 0.02q-5.52-6.64-13.33-10.85-6.83-3.69-15.32-5.46-0.42-0.11-0.86-0.19-7.16-1.4-16.8-2.09-9.48-0.67-20.45-0.67-7.1 0-14.39 0.57-6.91 0.54-14.09 1.72-7.24 1.17-13.12 2.83-6.25 1.77-11.4 4.17l-0.24 0.1q-6.75 3.14-12.36 6.88-0.97 0.65-1.91 1.32c-1.06-9.6-9.08-17.1-18.91-17.34l6.56-20.55c1.72-4.57 1.73-9.78-0.38-14.61-4.28-9.85-15.74-14.35-25.59-10.06l-55.3 24.24 0.01 0.02c-4.95 2.17-8.99 6.38-10.75 11.94l-2.88 9.02h-3.35v0.08c-8.24 0-15.89 5.28-18.51 13.55l-0.66 2.06q-3.35-3.94-7.55-7.02-5.94-4.36-13.26-6.98l-0.01 0.05-0.14-0.05q-6.94-2.43-17.07-3.51-9.32-0.99-20.98-0.99-11.64 0-21.56 1.24-10.39 1.3-19.1 4.03-8.7 2.71-16.54 7.06-7.98 4.43-14.41 10.16l0.04 0.04q-6.85 6.08-11.73 13.5-4.92 7.46-7.69 16.13-2.73 8.58-2.63 16.64 0.12 8.62 3.37 16.29 0.11 0.27 0.23 0.55 1.29 2.92 2.9 5.56l-7.86 0.72c-9.95 0.1-18.37 7.77-19.2 17.88q-1.12 13.03 2.75 23.87 3.83 10.7 12.44 18.6 0.69 0.71 1.45 1.36 9.39 7.98 25.51 11.4 13.47 2.86 32.32 2.86 13.29 0 24.79-1.72 11.98-1.79 21.96-5.55 9.69-3.65 17.79-8.74 8.41-5.29 14.86-12.03 3.47-3.6 6.37-7.35 1.04 8.58 5.02 15.4 4.29 7.34 11.74 12.16 6.39 4.16 15.9 6.03 0.4 0.1 0.82 0.17 8.25 1.51 18.55 1.51 8.4 0 18.29-1.1 8.43-0.94 18.48-2.93c5.7-0.79 10.8-4.1 13.84-8.99q7.4 8.06 19.05 11.97 10.78 3.62 24.85 3.62 9.61 0 19.18-1.58 8.81-1.46 17.24-4.38 0.55-0.17 1.1-0.37 1.71-0.62 3.41-1.33c3.44 3.04 7.96 4.89 12.91 4.89h44.54v-0.03q1.63 0 3.28-0.28c2.09-0.35 4.05-1.03 5.84-1.98q2.6 0.76 5.44 0.77h47.69v-0.08c8.24 0 15.89-5.28 18.51-13.55l13.17-41.3q4.24-13.3 8.63-22.06 3.62-7.22 6.89-10.5 1.23-1.23 2.24-1.69 0.35-0.16 0.86-0.16c0.13 0-0.05 0.04 0.22 0.12q1.32 0.37 2.89 1.09c6.75 3.57 14.94 2.81 20.91-1.75h2.16l-19.95 62.58c-1 2.35-1.56 4.94-1.56 7.66 0 10.77 8.73 19.5 19.5 19.5h47.61v-0.09c8.24 0.01 15.89-5.28 18.51-13.55l2.54-7.97q-0.13 1.11-0.13 2.25c0 10.77 8.73 19.5 19.5 19.5h47.49v-0.08c2.92 0 5.76-0.66 8.34-1.89 2.57 1.26 5.47 1.97 8.53 1.97h51.44v-0.06c4.99 0 9.99-1.91 13.79-5.73l15.5-15.53 1.25 4.89c1.48 9.31 9.54 16.43 19.26 16.43h55.42v-0.02c2.31 0 4.65-0.41 6.93-1.28 3.19-1.21 5.87-3.17 7.93-5.61 4.29 1.66 8.95 2.56 13.82 2.56 21.25 0 38.47-17.22 38.47-38.46 0-21.24-17.22-38.46-38.47-38.46z"/>
	<path id="Path 4 copy" class="s1" d="m460 69.96h44.43l-6.42 20.16q10.61-13.08 18.99-18.02 8.39-4.93 18.43-4.95c7 0 13.95 2.18 20.9 6.5l-25.43 33.66c-4.82-2.34-8.92-3.49-12.19-3.49-6.2 0-11.84 2.58-16.88 7.64q-10.8 10.82-20.25 40.4l-13.17 41.3h-47.69zm-120.83 41.4l-43.83-4.76q6.34-11.83 13.34-18.61c4.67-4.51 10.53-8.43 17.68-11.76 5.12-2.42 11.72-4.28 19.74-5.58q12.03-1.97 25.35-1.98c14.22 0 25.43 0.79 33.52 2.37q12.21 2.39 18.41 9.94 4.42 5.22 4.89 14.77c0.26 6.42-0.52 12.48-2.37 18.3l-17.35 54.41c-1.85 5.78-2.9 10.33-3.23 13.62-0.3 3.29-0.04 7.49 0.84 12.6h-44.55q-1.16-4.76-1.19-7.25c-0.03-1.66 0.29-4.28 0.87-7.85-8.12 5.99-15.68 10.22-22.62 12.76q-14.23 5.11-30.89 5.1-22.16 0.01-30.42-10.21-8.23-10.17-3.45-25.15 4.47-14.06 15.64-23.08c7.47-6.06 19.04-10.54 34.83-13.47q28.45-5.34 37.06-7.49c5.71-1.42 11.93-3.32 18.55-5.62 1.86-5.82 1.96-9.86 0.31-12.19-1.7-2.3-5.53-3.49-11.62-3.49-7.77 0-13.99 1.27-18.67 3.72-3.64 1.94-7.28 5.59-10.84 10.9zm33.25 24.82q-10.92 3.51-22.35 6.18c-10.45 2.54-17.39 5.07-20.72 7.52-3.49 2.58-5.72 5.47-6.76 8.72-1.18 3.72-0.83 6.73 1 9.1q2.81 3.52 10.38 3.53c5.29 0 10.6-1.27 15.99-3.8q8.04-3.87 12.65-9.35c3.09-3.68 5.53-8.47 7.4-14.33zm-99.02-114.16l-14.95 46.89h26.11l-10.98 34.45h-26.12l-13.94 43.72q-2.51 7.9-1.82 10.45c0.72 2.62 3 3.96 6.9 3.96q5.25 0 15.66-3.05l-6.9 32.64q-18.82 3.8-34.1 3.8-17.74-0.01-24.68-4.51-6.97-4.53-8.03-13.75c-0.75-6.14 1.11-16.11 5.51-29.9l13.83-43.36h-17.52l10.98-34.45h17.52l7.23-22.65zm-252.98 135.98l48.55-4.43c0.17 5.58 1.6 9.58 4.35 11.96q4.09 3.61 12.86 3.61 9.55 0 16.12-4.08c3.33-1.98 5.49-4.52 6.45-7.53 1.09-3.41 0.13-6.02-2.82-7.88q-3.26-1.96-18.87-4.87c-15.56-2.89-26.19-5.5-31.82-7.96q-8.45-3.69-12.26-12.35-3.86-8.68-0.29-19.85c2.6-8.11 7.22-15.12 13.83-20.98q9.92-8.86 23.79-13.19 13.85-4.35 34.87-4.35c14.77 0 25.31 1.14 31.65 3.36q9.48 3.39 14.27 10.45 4.77 7.07 5.64 19.13l-46.45 4.44c0.08-3.96-0.92-6.86-3.07-8.72q-4.41-3.73-12.35-3.72c-5.33 0-9.58 0.95-12.61 2.85-3.08 1.91-5 4.2-5.86 6.9-0.97 3.05-0.14 5.3 2.47 6.84q3.93 2.31 18.97 4.2c15.2 1.79 26.16 4.24 32.83 7.41q10.07 4.74 13.35 13.58 3.33 8.79-0.05 19.37-3.4 10.68-13.12 20.78-9.68 10.1-25.5 16.04-15.88 6-39.88 5.98-33.93 0-45.26-9.62c-7.55-6.42-10.8-15.56-9.79-27.37z"/>
	<path id="Path 5 copy" fill-rule="evenodd" class="s2" d="m629.77 68.82h22.61l-11.02 34.57h-22.61l-28.26 88.63h-47.61l28.25-88.63h-17.71l11.03-34.57h17.71l1.78-5.59q2.42-7.55 6.93-16.59c3.03-6.02 6.63-10.97 10.84-14.77 4.21-3.84 9.41-6.93 15.54-9.3q9.25-3.52 24.89-3.53c8.33 0 20.09 0.95 35.35 2.89l-14.36 28.55c-5.39-0.95-9.83-1.38-13.33-1.38q-6.39 0-9.88 2.14-3.48 2.13-6.14 6.77c-0.94 1.7-2.25 5.31-4.01 10.81zm107.13 0.14h56.34l8.76 34.34 33.8-34.34h52.39l-60.95 58.69 24.69 64.51h-55.42l-10.19-39.68-39.61 39.68h-51.44l65.6-64.51zm-51.76-46.88h47.49l-10.25 32.16h-47.5zm-14.95 46.88h47.49l-39.28 123.2h-47.49zm210.41 76.04c6.59 0 12.55 2.67 16.86 6.99 4.31 4.31 6.98 10.27 6.98 16.86 0 6.58-2.67 12.54-6.98 16.85-4.31 4.32-10.27 6.99-16.86 6.99-6.58 0-12.54-2.67-16.85-6.99-4.31-4.31-6.99-10.27-6.99-16.85 0-6.59 2.67-12.55 6.99-16.86 4.31-4.32 10.27-6.99 16.85-6.99zm14.88 8.97c-3.8-3.81-9.07-6.17-14.88-6.17-5.81 0-11.07 2.36-14.88 6.17-3.8 3.8-6.16 9.07-6.16 14.88 0 5.81 2.36 11.07 6.16 14.87 3.81 3.81 9.07 6.17 14.88 6.17 5.81 0 11.08-2.36 14.89-6.17 3.8-3.8 6.16-9.06 6.16-14.87 0-5.81-2.36-11.08-6.17-14.88zm-25.56 1.73h12.27q1.83 0 3.22 0.18 1.41 0.19 2.38 0.57 0.99 0.38 1.78 1.06 0.79 0.67 1.38 1.63 0.58 0.96 0.88 2.03 0.29 1.06 0.29 2.21 0 1.5-0.49 2.76-0.48 1.27-1.46 2.3-0.97 1.03-2.47 1.69-1.09 0.47-2.46 0.75 0.2 0.11 0.38 0.22 0.56 0.35 0.95 0.71 0.8 0.72 1.54 1.63 0.76 0.91 1.48 2.01v0.01l4.68 7.33 0.33 0.52h-5.27l-0.1-0.16-3.57-5.61q-0.77-1.19-1.42-2.12-0.63-0.92-1.14-1.56-0.49-0.63-0.92-1.06-0.43-0.43-0.8-0.66-0.38-0.25-0.76-0.42-0.37-0.16-0.74-0.26-0.29-0.06-0.78-0.08-0.48-0.03-1.15-0.03h-3.8v11.96h-4.23zm4.23 11.89h7.33q1.2 0 2.13-0.12 0.92-0.13 1.57-0.37 0.65-0.24 1.13-0.61 0.48-0.37 0.8-0.87v-0.01q0.33-0.51 0.5-1.07 0.17-0.55 0.16-1.16 0-0.89-0.31-1.61-0.32-0.71-0.96-1.28-0.64-0.57-1.65-0.85-1.05-0.29-2.51-0.3h-8.19z"/>
	<path id="Path 6 copy" class="s1" d="m748.7 31.32q1.59-4.26 5.5-6.5 4.99-2.87 13.98-2.87 6.55 0 8.93 1.91 2.11 1.71 1.39 5.38-0.29 1.44-0.98 3.3l-5.1 13.63q-0.21 0.53-0.37 0.95-0.17 0.43-0.27 0.97-0.2 1 0.66 2.02l-0.21 0.53h-11.45l0.61-3.04q-2.97 2.08-6.02 2.99-3.06 0.9-6.25 0.9-3.2 0-5.16-1.38-2.51-1.81-1.8-5.38l0.51-1.81q0.59-1.6 1.68-3.08 1.09-1.5 2.47-2.51 3.28-2.34 9.59-3.24 7.67-1.12 8.53-1.42 0.85-0.29 1.33-0.71 0.49-0.43 0.72-1.07 0.46-2.29-2.63-2.28-1.86-0.01-3.05 0.58-1.17 0.58-1.91 2.13zm15.55 6.97q-4.1 1.06-5.95 1.55-3.38 0.9-4.17 3.03-0.23 1.12 0.48 1.73 0.7 0.61 1.98 0.61 2.45 0 4.37-1.65 1.93-1.65 2.93-4.26zm23.17-15.59h10.17l-1.57 4.15q2.1-2.03 5.13-3.46 3.03-1.44 5.63-1.44 3.25 0 4.91 1.01 2.05 1.22 2.22 4.1 2.94-2.72 5.73-3.91 2.79-1.2 5.77-1.2 4.58 0 6.43 1.84 1.84 1.83 1 6.04-0.33 1.64-1.24 4.1l-6.24 16.71h-11.02l5.33-14.27q0.66-1.7 0.89-2.82 0.31-1.59-0.25-2.23-0.57-0.64-2.22-0.64-1.7 0-2.74 0.69-1.91 1.28-3.29 5l-5.33 14.27h-11.12l5.43-14.53q0.59-1.6 0.77-2.5 0.58-2.93-2.35-2.93-1.97 0-3.47 1.38-1.49 1.38-2.61 4.31l-5.33 14.27h-11.13zm66.4 19.53h10.59q-2.36 3.83-6.68 6.28-5.28 2.98-12.2 2.98-6.38 0-9.38-3.14-3-3.14-1.91-8.57 0.23-1.17 0.83-2.87 2.28-6.07 7.79-10.28 6.14-4.68 13.65-4.68 7.24 0 9.92 4.21 2.27 3.56 1.13 9.31-0.37 1.86-1.06 3.73h-21.24q-0.56 2.81 0.54 4.25 0.97 1.28 2.94 1.28 1.28 0 2.63-0.61 1.34-0.62 2.45-1.89zm-6.42-8.73h10.22q0.45-2.24-0.47-3.51-0.92-1.28-2.73-1.28-2.44 0-4.29 1.25-1.85 1.25-2.73 3.54zm29.78-10.8h12.25l0.97 6.91 6.32-6.91h12.08l-14.51 13.3 4.23 14.64h-12.4l-0.97-7.99-7.02 7.99h-12.3l15.45-14.53z"/>
</svg>